# xmcd CD database file
#
# Track frame offsets:
#	151
#	35369
#	54837
#	73040
#	112895
#	132429
#
# Disc length: 3271 seconds
#
# Revision: 0
# Processed by: cddbd v1.5.1PL0 Copyright (c) Steve Scherf et al.
# Submitted via: CDex 1.51
#
DISCID=4a0cc506
DTITLE=OGG - いっさか線ぶるーす
DYEAR=2004
DGENRE=Blues
TTITLE0=いっさか線ぶる〜す
TTITLE1=雨あがり
TTITLE2=花冷えの頃に
TTITLE3=根雪
TTITLE4=空は空　うみはうみ
TTITLE5=石山寺〜坂本駅　車掌さんの最後の車内放送
EXTD=YEAR: 2004
EXTT0=
EXTT1=
EXTT2=
EXTT3=
EXTT4=
EXTT5=
PLAYORDER=
